<?xml version="1.0" encoding="utf-8"?>
<!DOCTYPE svg PUBLIC "-//W3C//DTD SVG 1.1//EN" "http://www.w3.org/Graphics/SVG/1.1/DTD/svg11.dtd">
<svg version="1.1" xmlns="http://www.w3.org/2000/svg" xmlns:xlink="http://www.w3.org/1999/xlink" x="0px" y="0px" viewBox="0 0 1000 1000" enable-background="new 0 0 1000 1000" xml:space="preserve">
<metadata> Svg Vector Icons : http://www.onlinewebfonts.com/icon </metadata>
<g><g transform="translate(0.000000,511.000000) scale(0.100000,-0.100000)"><path d="M3732.4,2474.7L2504.5,1105.9l-7.7,330.7l-7.7,330.7h-471.7h-474.2V900.8V34.3L822.9-773.1L100-1578l581.9-7.7l579.3-5.1l5.1-1010l7.7-1010l1789.3,1917.4C4050.2-639.8,4891.1,257.4,4934.6,300.9l82,76.9l922.8-943.3l922.8-943.3l7.7,369.1l7.7,369.1h253.8h256.3v-658.8v-661.4l679.3-763.9l679.3-763.9V-2606v1015.1h576.8c317.9,0,576.8,5.1,576.8,12.8c0,17.9-4898.7,5406.3-4921.8,5416.5C4968,3843.6,4406.6,3228.4,3732.4,2474.7z"/><path d="M3555.5-1942.1c-789.5-866.4-1450.9-1597-1471.4-1625.2c-33.3-46.2-25.6-48.7,248.6-48.7h282l1184.3,1315c653.7,720.3,1192,1315,1202.2,1317.6c7.7,5.1,558.8-587,1220.2-1312.5l1204.8-1317.6l264-2.6c143.6,0,261.5,5.1,261.5,12.8c0,17.9-2924.9,3227.4-2945.4,3235.1C4998.7-365.5,4345-1073,3555.5-1942.1z"/><path d="M4337.3-2398.3v-243.5h241h238.4l15.4,174.3c7.7,94.9,7.7,202.5,0,243.5l-12.8,69.2h-241h-241V-2398.3z"/><path d="M5183.3-2398.3v-243.5h243.5h243.5v243.5v243.5h-243.5h-243.5V-2398.3z"/><path d="M4337.3-3064.8v-243.5h251.2h248.7v243.5v243.5h-248.7h-251.2V-3064.8z"/><path d="M5183.3-3064.8v-243.5h243.5h243.5v243.5v243.5h-243.5h-243.5V-3064.8z"/></g></g>
</svg>